<svg version="1.1" xmlns="http://www.w3.org/2000/svg" xmlns:xlink="http://www.w3.org/1999/xlink" width="311.0215" height="299.41349" viewBox="0,0,311.0215,299.41349"><g transform="translate(-84.48925,-30.29326)"><g data-paper-data="{&quot;isPaintingLayer&quot;:true}" fill-rule="nonzero" stroke="none" stroke-width="1" stroke-linecap="butt" stroke-linejoin="miter" stroke-miterlimit="10" stroke-dasharray="" stroke-dashoffset="0" style="mix-blend-mode: normal"><path d="M84.48925,30.29326h311.0215v299.41349h-311.0215z" fill="#af2025"/><path d="M338.16178,33.8177l-128.1893,109.97958l44.08353,0.07391l12.25773,-39.39457h74.4325l-43.04975,140.87438h-76.05701l10.11632,-30.45133h-74.50634l-53.68296,-64.37649l138.52715,-116.70548h53.23991c0,0.07391 0,0 0,0z" fill="#ffffff"/><g fill="#ffffff"><path d="M164.6814,324.16342l-21.26643,-28.60356l-13.4392,12.7866l0.07384,15.89087l-25.47541,0.07391l-0.14768,-73.24581l25.54925,-0.07391l0.07384,30.96871l31.75196,-31.04262l30.86586,-0.07391l-31.08738,29.49049l33.00727,43.75532z"/><path d="M198.57477,250.99152l60.32872,-0.14782l0.07384,19.36468l-28.94597,0.07391l0.14768,53.88112l-25.54925,0.07391l-0.14768,-53.88112l-26.28767,0.07391"/><path d="M263.55552,324.31124l-0.14768,-73.24581l18.09123,-0.07391l7.38418,15.52131l0.14768,57.7245z"/><path d="M313.62024,250.99152l21.11874,49.22473l20.89722,-49.37255l26.95224,-0.07391l-34.63179,73.31972l-26.65688,0.07391l-35.001,-73.1719z"/></g></g></g></svg>