<?xml version="1.0" encoding="utf-8"?>
<!-- Generator: Adobe Illustrator 26.3.1, SVG Export Plug-In . SVG Version: 6.00 Build 0)  -->
<!DOCTYPE svg PUBLIC "-//W3C//DTD SVG 1.1//EN" "http://www.w3.org/Graphics/SVG/1.1/DTD/svg11.dtd" [
	<!ENTITY ns_extend "http://ns.adobe.com/Extensibility/1.0/">
	<!ENTITY ns_ai "http://ns.adobe.com/AdobeIllustrator/10.0/">
	<!ENTITY ns_graphs "http://ns.adobe.com/Graphs/1.0/">
	<!ENTITY ns_vars "http://ns.adobe.com/Variables/1.0/">
	<!ENTITY ns_imrep "http://ns.adobe.com/ImageReplacement/1.0/">
	<!ENTITY ns_sfw "http://ns.adobe.com/SaveForWeb/1.0/">
	<!ENTITY ns_custom "http://ns.adobe.com/GenericCustomNamespace/1.0/">
	<!ENTITY ns_adobe_xpath "http://ns.adobe.com/XPath/1.0/">
]>
<svg version="1.1" id="Layer_1" xmlns:x="&ns_extend;" xmlns:i="&ns_ai;" xmlns:graph="&ns_graphs;"
	 xmlns="http://www.w3.org/2000/svg" xmlns:xlink="http://www.w3.org/1999/xlink" x="0px" y="0px" viewBox="0 0 549.4 775.2"
	 style="enable-background:new 0 0 549.4 775.2;" xml:space="preserve">
<style type="text/css">
	.st0{fill:#3F3F3F;}
	.st1{fill:url(#SVGID_1_);}
	.st2{fill:url(#SVGID_00000022546624357211465320000012747168156953745061_);}
	.st3{fill:url(#SVGID_00000002366013319470634840000005593920769721211556_);}
	.st4{fill:url(#SVGID_00000139986931980343118230000017425537858167499649_);}
	.st5{fill:url(#SVGID_00000121252747854209723130000001792330762615636670_);}
	.st6{fill:url(#SVGID_00000003077355677195336520000014409305169282413749_);}
	.st7{fill:url(#SVGID_00000114052064679083010480000001976515690141462170_);}
	.st8{fill:url(#SVGID_00000042694903365719072080000010521661203340819873_);}
	.st9{fill:url(#SVGID_00000078018319192105681090000002152673134948105605_);}
	.st10{fill:url(#SVGID_00000057842334653307840520000001478648395174442624_);}
	.st11{fill:url(#SVGID_00000069386690600085863220000005842882591223013267_);}
	.st12{fill:#A5A5A5;}
	.st13{fill:url(#SVGID_00000150795013306082599690000018057145004443952827_);}
	.st14{fill:#FFFFFF;}
	.st15{fill:url(#SVGID_00000127748564543712186680000013822136862358609817_);}
	.st16{fill:url(#SVGID_00000128475056536506009680000010867026966774367115_);}
	.st17{fill:url(#SVGID_00000174576186595937666280000001274858120066198192_);}
	.st18{fill:url(#SVGID_00000171715002538289110520000015758874507799703999_);}
	.st19{fill:url(#SVGID_00000145753720280535204430000016455359315129189781_);}
	.st20{fill:url(#SVGID_00000034090435850271097100000017911205714218126753_);}
	.st21{fill:url(#SVGID_00000023270821179796214630000008294299426464142003_);}
	.st22{fill:url(#SVGID_00000116235934984229130040000006205011041027195785_);}
	.st23{fill:url(#SVGID_00000116918159063795610730000002497783768595210671_);}
	.st24{fill:url(#SVGID_00000085238414808243483280000017470910862044863913_);}
	.st25{fill:url(#SVGID_00000088832647017788016630000016070769293292626058_);}
	.st26{fill:url(#SVGID_00000083808033845123501330000017409064957566252706_);}
	.st27{fill:url(#SVGID_00000090261698268882254470000000784688124254396597_);}
	.st28{fill:url(#SVGID_00000179617953826190767110000000540657270520736128_);}
</style>
<metadata>
	<sfw  xmlns="&ns_sfw;">
		<slices></slices>
		<sliceSourceBounds  bottomLeftOrigin="true" height="775.2" width="549.4" x="0" y="304.8"></sliceSourceBounds>
	</sfw>
</metadata>
<rect class="st0" width="506.1" height="775.2"/>
<linearGradient id="SVGID_1_" gradientUnits="userSpaceOnUse" x1="5" y1="716.4821" x2="501.061" y2="716.4821">
	<stop  offset="0" style="stop-color:#DEDEDF"/>
	<stop  offset="0.5" style="stop-color:#FFFFFF"/>
	<stop  offset="1" style="stop-color:#DCDDDE"/>
</linearGradient>
<polygon class="st1" points="5,770.2 5,662.8 501.1,662.8 501.1,770.2 "/>
<linearGradient id="SVGID_00000106851970725340099330000011074302109389691557_" gradientUnits="userSpaceOnUse" x1="5" y1="60.8687" x2="501.061" y2="60.8687">
	<stop  offset="0" style="stop-color:#DEDEDF"/>
	<stop  offset="0.5" style="stop-color:#FFFFFF"/>
	<stop  offset="1" style="stop-color:#DCDDDE"/>
</linearGradient>
<polygon style="fill:url(#SVGID_00000106851970725340099330000011074302109389691557_);" points="5,116.7 5,5 501.1,5 501.1,116.7 
	"/>
<linearGradient id="SVGID_00000121966493625634265500000011778797195524948129_" gradientUnits="userSpaceOnUse" x1="72.797" y1="77.5947" x2="433.264" y2="701.9418">
	<stop  offset="0.1557" style="stop-color:#F85054"/>
	<stop  offset="0.3557" style="stop-color:#EB343C"/>
	<stop  offset="0.5367" style="stop-color:#E2222D"/>
	<stop  offset="0.6655" style="stop-color:#DF1B27"/>
	<stop  offset="1" style="stop-color:#56060A"/>
</linearGradient>
<polygon style="fill:url(#SVGID_00000121966493625634265500000011778797195524948129_);" points="5,662.8 5,116.7 501.1,116.7 
	501.1,662.8 "/>
<linearGradient id="SVGID_00000056402097732369343510000013696249933390048691_" gradientUnits="userSpaceOnUse" x1="75.4458" y1="108.3711" x2="75.4458" y2="15.2744">
	<stop  offset="0" style="stop-color:#302E2F"/>
	<stop  offset="1" style="stop-color:#686A6C"/>
</linearGradient>
<polygon style="fill:url(#SVGID_00000056402097732369343510000013696249933390048691_);" points="29.2,15.3 50.3,15.3 99.1,72.6 
	99.1,15.3 121.7,15.3 121.7,108.4 102.2,108.4 51.8,49.2 51.8,108.4 29.2,108.4 "/>
<linearGradient id="SVGID_00000085209344165035018930000012835146161501524387_" gradientUnits="userSpaceOnUse" x1="178.2302" y1="108.3711" x2="178.2302" y2="15.2744">
	<stop  offset="0" style="stop-color:#302E2F"/>
	<stop  offset="1" style="stop-color:#686A6C"/>
</linearGradient>
<polygon style="fill:url(#SVGID_00000085209344165035018930000012835146161501524387_);" points="138.6,15.3 217.2,15.3 217.2,33.5 
	161.3,33.5 161.3,52.4 210.5,52.4 210.5,70.6 161.3,70.6 161.3,90.2 217.9,90.2 217.9,108.4 138.6,108.4 "/>
<linearGradient id="SVGID_00000097466069559745862660000012799219965203694723_" gradientUnits="userSpaceOnUse" x1="313.762" y1="109.0361" x2="313.762" y2="15.0083">
	<stop  offset="0" style="stop-color:#302E2F"/>
	<stop  offset="1" style="stop-color:#686A6C"/>
</linearGradient>
<polygon style="fill:url(#SVGID_00000097466069559745862660000012799219965203694723_);" points="234.7,15.3 259.3,15.3 280.9,78.3 
	304.2,15 323.9,15 347.3,78.3 368.8,15.3 392.8,15.3 357.2,109 337.3,109 313.8,48.1 290.2,109 270.3,109 "/>
<linearGradient id="SVGID_00000072252908385554147390000014616677791870800027_" gradientUnits="userSpaceOnUse" x1="435.676" y1="109.7012" x2="435.676" y2="13.9443">
	<stop  offset="0" style="stop-color:#302E2F"/>
	<stop  offset="1" style="stop-color:#686A6C"/>
</linearGradient>
<path style="fill:url(#SVGID_00000072252908385554147390000014616677791870800027_);" d="M394.4,94.8L408,80.3
	c9.5,6.9,19.2,11.3,31.1,11.3c9.5,0,15-3.3,15-8.8v-0.3c0-5.2-3.6-8-21-11.8c-21.1-4.7-34.5-10.1-34.5-28.5V42
	c0-16.9,15-28.1,36.5-28.1c15.3,0,28,4.3,38.7,11.8l-11.9,15.4c-9.4-5.7-18.2-9.2-27.1-9.2s-13.4,3.5-13.4,8.1v0.3
	c0,6.3,4.5,8,22.5,12.2c21.1,5.1,33,11.7,33,27.9v0.3c0,18.5-15.8,28.9-38.3,28.9C422.7,109.7,406.9,104.9,394.4,94.8z"/>
<linearGradient id="SVGID_00000024720808222935231440000013637199579820802220_" gradientUnits="userSpaceOnUse" x1="59.0879" y1="760.7414" x2="59.0879" y2="671.842">
	<stop  offset="0" style="stop-color:#302E2F"/>
	<stop  offset="1" style="stop-color:#686A6C"/>
</linearGradient>
<polygon style="fill:url(#SVGID_00000024720808222935231440000013637199579820802220_);" points="14.4,671.8 36,671.8 36,710.7 
	75.6,671.8 102.1,671.8 62,709.6 103.8,760.7 77.8,760.7 47.4,722.9 36,733.6 36,760.7 14.4,760.7 "/>
<linearGradient id="SVGID_00000002386297918564907710000006942559550327439035_" gradientUnits="userSpaceOnUse" x1="184.4011" y1="761.3762" x2="184.4011" y2="671.5881">
	<stop  offset="0" style="stop-color:#302E2F"/>
	<stop  offset="1" style="stop-color:#686A6C"/>
</linearGradient>
<polygon style="fill:url(#SVGID_00000002386297918564907710000006942559550327439035_);" points="109.8,671.8 133,671.8 153.4,732 
	175.4,671.6 193.9,671.6 216,732 236.4,671.8 259,671.8 225.4,761.4 206.6,761.4 184.4,703.2 162.2,761.4 143.4,761.4 "/>
<linearGradient id="SVGID_00000020364927739678040770000001636754911166690709_" gradientUnits="userSpaceOnUse" x1="340.5334" y1="761.3762" x2="340.5334" y2="671.5881">
	<stop  offset="0" style="stop-color:#302E2F"/>
	<stop  offset="1" style="stop-color:#686A6C"/>
</linearGradient>
<polygon style="fill:url(#SVGID_00000020364927739678040770000001636754911166690709_);" points="266,671.8 289.1,671.8 309.5,732 
	331.5,671.6 350.1,671.6 372.1,732 392.5,671.8 415.1,671.8 381.5,761.4 362.7,761.4 340.5,703.2 318.3,761.4 299.5,761.4 "/>
<linearGradient id="SVGID_00000072244078085021125360000009034263032230094005_" gradientUnits="userSpaceOnUse" x1="462.8965" y1="760.7414" x2="462.8965" y2="671.842">
	<stop  offset="0" style="stop-color:#302E2F"/>
	<stop  offset="1" style="stop-color:#686A6C"/>
</linearGradient>
<polygon style="fill:url(#SVGID_00000072244078085021125360000009034263032230094005_);" points="427.6,671.8 449.2,671.8 
	449.2,743 498.2,743 498.2,760.7 427.6,760.7 "/>
<path class="st12" d="M24.8,130.8v134.1h267.1c-89.8,102.3-155.8,242.1-169,387.4h169.5c0-213.9,83.2-323.4,178.4-414.1V130.8H24.8z
	"/>
<radialGradient id="SVGID_00000072268177267841207970000005067975374726008724_" cx="178.5106" cy="223.2435" r="426.4227" gradientUnits="userSpaceOnUse">
	<stop  offset="0.25" style="stop-color:#FFFFFF"/>
	<stop  offset="1" style="stop-color:#C9CCCD"/>
</radialGradient>
<path style="fill:url(#SVGID_00000072268177267841207970000005067975374726008724_);" d="M128.5,647.2
	c13.5-135.3,74.2-273.1,167.2-379.1l7.3-8.3H29.8V135.8h436V236c-92.1,88.2-177.1,199.3-178.4,411.2H128.5z"/>
<path class="st14" d="M361.7,539.4"/>
<path class="st14" d="M510.6,574.3c-5.9,0-13,2.3-19,5.2l9.5-6.3l1.8-1.3c18.5-12.4,23.5-37.5,11.2-56c-7.9-12-20.4-19.1-33.6-19.1
	c-7.2,0-14.2,2.2-20.4,6.3c-4.7,3.2-8.3,8.1-10.5,11.9c0.7-1.4,0.9-2.2,0.9-2.2l0.8-2c8.8-20.4-0.2-44.3-20.1-53.4
	c-5.1-2.3-10.5-3.5-16.1-3.5c-15.6,0-29.8,9.5-36.2,24.1c-1.4,3.2-2.3,6.5-2.9,9.9c-0.6-3.3-1.5-6.7-2.9-9.9
	c-6.3-14.6-20.5-24.1-36.2-24.1c-5.6,0-11,1.2-16.1,3.5c-19.9,9-28.9,33-20.1,53.4l0.8,2c0,0,0.3,0.7,0.9,2.1
	c-2.2-3.8-5.8-8.7-10.4-11.8c-6.2-4.2-13.3-6.3-20.4-6.3c-13.1,0-25.7,7.2-33.6,19.1c-12.3,18.6-7.3,43.7,11.2,56l1.6,1.2l0.1,0.1
	l9.5,6.3c-5.9-3-13-5.3-19-5.3c-22.4,0-39.3,16.9-39.3,39.4c0,22.3,18,40.4,40.2,40.4l18.3,0.1l108.3-0.1l0.1,0.1l17.2-0.1
	l104.8,0.1l18.2-0.1c22.2,0,40.2-18.1,40.2-40.4C549.9,591.3,533,574.3,510.6,574.3L510.6,574.3z"/>
<path d="M352.9,636.5c-8.7-5.7-99.6-66.3-99.6-66.3l-1.7-1.2c-16.8-11.2-21.4-34-10.2-50.9c11.2-16.9,32-23,48.8-11.8
	c5.5,3.6,9.7,10.6,11.7,15.4L352.9,636.5z"/>
<path d="M399.4,636.5c8.7-5.7,99.6-66.3,99.6-66.3l1.7-1.2c16.8-11.2,21.5-34,10.3-50.9s-32.1-23-48.9-11.8
	c-5.5,3.6-9.7,10.6-11.7,15.4L399.4,636.5z"/>
<path d="M264.5,586.1c-5.8-3.7-15.4-8-22.8-8c-20.2,0-35.6,15.4-35.6,35.7s16.4,36.7,36.5,36.7H261l101.7-0.1L264.5,586.1
	L264.5,586.1z"/>
<path d="M487.8,586.1c5.8-3.7,15.4-8,22.8-8c20.2,0,35.5,15.4,35.5,35.7s-16.4,36.7-36.5,36.7h-18.2l-101.7-0.1L487.8,586.1
	L487.8,586.1z"/>
<path d="M353,621.5c-6.7-14.8-47.8-110.1-47.8-110.1l-0.8-2c-8.1-18.5,0.1-40.2,18.1-48.5s39.2,0.1,47.3,18.7
	c3,6.8,3.7,13.9,2.7,20.6L353,621.5z"/>
<path d="M399.3,621.5c6.8-15.1,47.8-110.1,47.8-110.1l0.8-2c8.1-18.5-0.1-40.2-18.2-48.5c-18-8.3-39.2,0.1-47.3,18.7
	c-2.9,6.8-3.7,13.9-2.6,20.6L399.3,621.5L399.3,621.5z"/>
<path class="st14" d="M390.8,551.6"/>
<linearGradient id="SVGID_00000054253475132172361660000015933161136191050630_" gradientUnits="userSpaceOnUse" x1="375.2" y1="419.7168" x2="375.2" y2="109.9933" gradientTransform="matrix(1 0 0 -1 0 916.2)">
	<stop  offset="0" style="stop-color:#FFFFFF"/>
	<stop  offset="1" style="stop-color:#000000"/>
</linearGradient>
<path style="fill:url(#SVGID_00000054253475132172361660000015933161136191050630_);" d="M507,574.1c-5.9,0-12.7,2.2-18.6,5.1
	c5.8-3.8,9.3-6.1,9.3-6.1l1.7-1.2c18-12.1,23.1-36.6,11.1-54.7c-7.7-11.7-20.1-18.7-32.9-18.7c-7.1,0-13.9,2.1-20.1,6.1
	c-4.6,3.1-8.1,7.9-10.3,11.6c0.6-1.4,0.9-2.1,0.9-2.1l0.8-2c8.6-19.9-0.2-43.3-19.7-52.1c-5-2.2-10.3-3.4-15.8-3.4
	c-15.3,0-29.3,9.2-35.5,23.5c-1.4,3.1-2.3,6.3-2.8,9.7c-0.6-3.3-1.5-6.6-2.9-9.7c-6.2-14.2-20.2-23.5-35.5-23.5
	c-5.5,0-10.8,1.1-15.7,3.4c-19.5,8.8-28.4,32.3-19.7,52.1l0.8,2c0,0,0.3,0.7,0.9,2c-2.2-3.8-5.7-8.6-10.2-11.6
	c-6-4.1-13-6.1-20.1-6.1c-12.8,0-25.1,7-32.9,18.7c-12,18.1-7.1,42.7,11.1,54.7l1.6,1.1l0.1,0.1c0,0,3.5,2.3,9.3,6.1
	c-5.8-2.9-12.7-5.1-18.6-5.1c-21.9,0-38.5,16.5-38.5,38.6c0,21.8,17.8,39.5,39.5,39.5l17.9,0.1l106.2-0.1l0.1,0.1l16.9-0.1
	l102.8,0.1l17.9-0.1c21.8,0,39.5-17.8,39.5-39.5C545.6,590.6,529.1,574.1,507,574.1L507,574.1z"/>
<linearGradient id="SVGID_00000021821973702107614040000009558323905828876470_" gradientUnits="userSpaceOnUse" x1="478.3185" y1="465.7723" x2="305.4753" y2="220.9755" gradientTransform="matrix(1 0 0 -1 0 916.2)">
	<stop  offset="0" style="stop-color:#505050"/>
	<stop  offset="0.1176" style="stop-color:#6C6C6C"/>
	<stop  offset="0.2213" style="stop-color:#E3E3E3"/>
	<stop  offset="0.3081" style="stop-color:#D6D6D6"/>
	<stop  offset="0.4426" style="stop-color:#8E8E8E"/>
	<stop  offset="0.4678" style="stop-color:#F2F2F2"/>
	<stop  offset="0.6303" style="stop-color:#EBEBEB"/>
	<stop  offset="0.8263" style="stop-color:#9A9A9A"/>
	<stop  offset="1" style="stop-color:#B4B4B4"/>
</linearGradient>
<path style="fill:url(#SVGID_00000021821973702107614040000009558323905828876470_);" d="M368,653.6H262.2l-17.9-0.1
	c-22.6,0-40.9-18.3-40.9-40.9c0-22.8,17.2-40,40-40c2.3,0,5,0.4,7.9,1l-1.1-0.7c-18.7-12.5-23.8-37.8-11.3-56.6
	c8-12.1,20.8-19.3,34.1-19.3c7.3,0,14.6,2.2,20.8,6.4c1.7,1.1,3.2,2.4,4.6,3.8c-5.4-19.2,3.8-40.2,22.3-48.5
	c5.2-2.3,10.7-3.5,16.4-3.5c15.9,0,30.3,9.6,36.8,24.4c0.6,1.3,1.1,2.7,1.6,4.1c0.5-1.4,0.9-2.8,1.6-4.1
	c6.4-14.8,20.8-24.4,36.8-24.4c5.7,0,11.2,1.2,16.4,3.5c18.4,8.4,27.7,29.3,22.3,48.5c1.4-1.4,2.9-2.7,4.6-3.8
	c6.3-4.2,13.6-6.4,20.8-6.4c13.4,0,26.1,7.3,34.1,19.3c12.5,18.8,7.3,44.2-11.4,56.7l-1,0.7c2.5-0.7,5.2-1,7.8-1
	c22.8,0,40,17.2,40,40c0,22.6-18.3,40.9-40.9,40.9l-17.9,0.1l-102.8-0.1L368,653.6L368,653.6z M385.4,650.7l102.8,0.1v1.4v-1.4
	l17.9-0.1c21,0,38.1-17.1,38.1-38.1c0-21.2-16-37.1-37.1-37.1c-5,0-11.5,1.9-17.9,5l-1.4-2.4l10.9-7.3
	c17.5-11.7,22.3-35.3,10.7-52.8c-7.4-11.3-19.3-18-31.8-18c-6.8,0-13.5,2-19.3,5.9c-4.5,3-7.8,7.7-9.9,11.2l-2.5-1.3l1.8-4.1
	c8.4-19.1-0.2-41.7-19-50.3c-4.8-2.2-9.9-3.3-15.2-3.3c-14.8,0-28.3,8.9-34.2,22.7c-1.3,2.9-2.2,6-2.7,9.3h-2.8
	c-0.6-3.3-1.5-6.4-2.8-9.4c-6-13.8-19.4-22.7-34.2-22.7c-5.2,0-10.3,1.1-15.2,3.3c-18.9,8.6-27.3,31-19,50.2l1.7,4.1l-2.5,1.3
	c-2-3.4-5.3-8.1-9.8-11.2c-5.9-3.9-12.5-5.9-19.3-5.9c-12.4,0-24.3,6.8-31.8,18c-11.6,17.5-6.8,41.2,10.6,52.8l1.6,1.2
	c0.1,0.1,3.6,2.4,9.4,6.2l-1.4,2.4c-6.4-3.2-12.9-5-17.9-5c-21.2,0-37.1,16-37.1,37.1c0,21,17.1,38.1,38.1,38.1l17.9,0.1l106.7-0.1
	l0.1,0.1H385.4L385.4,650.7z"/>
<linearGradient id="SVGID_00000065045797584391401900000007514038414415523258_" gradientUnits="userSpaceOnUse" x1="388.6314" y1="233.6484" x2="298.9333" y2="344.3628" gradientTransform="matrix(1 0 0 -1 0 916.2)">
	<stop  offset="0" style="stop-color:#DD731D"/>
	<stop  offset="0.591" style="stop-color:#F1EBCD"/>
	<stop  offset="0.5961" style="stop-color:#F1E9CA"/>
	<stop  offset="0.7021" style="stop-color:#ECBE8D"/>
	<stop  offset="0.7992" style="stop-color:#E89C5D"/>
	<stop  offset="0.8843" style="stop-color:#E5843B"/>
	<stop  offset="0.9541" style="stop-color:#E47526"/>
	<stop  offset="1" style="stop-color:#E3701E"/>
</linearGradient>
<path style="fill:url(#SVGID_00000065045797584391401900000007514038414415523258_);" d="M352.5,634.7c-8.6-5.6-97.8-64.8-97.8-64.8
	l-1.7-1.2c-16.5-11-21-33.2-10-49.7s31.4-22.4,48-11.4c5.4,3.5,9.5,10.3,11.5,15.1L352.5,634.7z"/>
<linearGradient id="SVGID_00000024698290688321437000000004863373135812203399_" gradientUnits="userSpaceOnUse" x1="235.4709" y1="346.65" x2="355.6" y2="346.65" gradientTransform="matrix(1 0 0 -1 0 916.2)">
	<stop  offset="0" style="stop-color:#F47E20"/>
	<stop  offset="0.591" style="stop-color:#F1EBCD"/>
	<stop  offset="0.5929" style="stop-color:#F1EACC"/>
	<stop  offset="0.6998" style="stop-color:#F2C48F"/>
	<stop  offset="0.7976" style="stop-color:#F3A65F"/>
	<stop  offset="0.8834" style="stop-color:#F3903D"/>
	<stop  offset="0.9538" style="stop-color:#F48328"/>
	<stop  offset="1" style="stop-color:#F47E20"/>
</linearGradient>
<path style="fill:url(#SVGID_00000024698290688321437000000004863373135812203399_);" d="M355.6,638.5l-4-2.6
	c-8.5-5.5-96.9-64.1-97.8-64.8l-1.7-1.2c-17.1-11.3-21.8-34.5-10.4-51.6c7.3-11.1,19-17.7,31-17.7c6.6,0,13.1,2,18.9,5.8
	c6.8,4.6,10.9,13.1,12,15.6L355.6,638.5L355.6,638.5z M272.9,503.4c-11.2,0-21.8,6.1-28.7,16.5c-10.5,15.8-6.1,37.3,9.7,47.8
	l1.7,1.2c0.7,0.6,74.4,49.4,93.7,62.1l-48.1-107.7c-2.1-4.8-6.1-11.2-11-14.4C284.9,505.3,278.9,503.4,272.9,503.4z"/>
<linearGradient id="SVGID_00000075150863477762493210000017354210499669087116_" gradientUnits="userSpaceOnUse" x1="479.0562" y1="306.9025" x2="389.3582" y2="417.6169" gradientTransform="matrix(1 0 0 -1 0 916.2)">
	<stop  offset="0" style="stop-color:#008BCF"/>
	<stop  offset="0.591" style="stop-color:#C2DBE7"/>
	<stop  offset="0.6241" style="stop-color:#ACD2E4"/>
	<stop  offset="0.7228" style="stop-color:#6FB9DD"/>
	<stop  offset="0.8131" style="stop-color:#3FA5D7"/>
	<stop  offset="0.8923" style="stop-color:#1D97D3"/>
	<stop  offset="0.9573" style="stop-color:#088ED0"/>
	<stop  offset="1" style="stop-color:#008BCF"/>
</linearGradient>
<path style="fill:url(#SVGID_00000075150863477762493210000017354210499669087116_);" d="M398,634.7c8.6-5.6,97.7-64.8,97.7-64.8
	l1.6-1.2c16.5-11,21-33.2,10-49.7c-11-16.5-31.4-22.4-48-11.4c-5.4,3.5-9.5,10.3-11.5,15.1L398,634.7z"/>
<linearGradient id="SVGID_00000067206197826384080020000016800875140442611338_" gradientUnits="userSpaceOnUse" x1="394.8" y1="346.6" x2="514.8542" y2="346.6" gradientTransform="matrix(1 0 0 -1 0 916.2)">
	<stop  offset="0" style="stop-color:#008BCF"/>
	<stop  offset="0.591" style="stop-color:#C2DBE7"/>
	<stop  offset="0.6241" style="stop-color:#ACD2E4"/>
	<stop  offset="0.7228" style="stop-color:#6FB9DD"/>
	<stop  offset="0.8131" style="stop-color:#3FA5D7"/>
	<stop  offset="0.8923" style="stop-color:#1D97D3"/>
	<stop  offset="0.9573" style="stop-color:#088ED0"/>
	<stop  offset="1" style="stop-color:#008BCF"/>
</linearGradient>
<path style="fill:url(#SVGID_00000067206197826384080020000016800875140442611338_);" d="M394.8,638.5l52-116.4
	c1.1-2.5,5.2-11.2,12-15.6c5.8-3.8,12.3-5.8,18.9-5.8c12.1,0,23.7,6.6,31,17.7c11.3,17.1,6.6,40.2-10.5,51.7l-1.6,1.1
	c-0.9,0.7-89.3,59.3-97.8,64.8L394.8,638.5L394.8,638.5z M477.6,503.4c-6,0-12,1.9-17.3,5.3c-4.8,3.3-8.8,9.6-11,14.4l-48.1,107.7
	c19.3-12.7,93-61.5,93.7-62.1l1.6-1.1c15.9-10.5,20.2-32,9.8-47.8C499.4,509.6,488.7,503.4,477.6,503.4z"/>
<linearGradient id="SVGID_00000023278622951162984230000015273812046130943637_" gradientUnits="userSpaceOnUse" x1="348.531" y1="201.16" x2="258.8422" y2="311.8837" gradientTransform="matrix(1 0 0 -1 0 916.2)">
	<stop  offset="0" style="stop-color:#F2CD21"/>
	<stop  offset="0.591" style="stop-color:#F1EBCD"/>
	<stop  offset="0.6986" style="stop-color:#F1E090"/>
	<stop  offset="0.7968" style="stop-color:#F1D860"/>
	<stop  offset="0.883" style="stop-color:#F2D23E"/>
	<stop  offset="0.9536" style="stop-color:#F2CE29"/>
	<stop  offset="1" style="stop-color:#F2CD21"/>
</linearGradient>
<path style="fill:url(#SVGID_00000023278622951162984230000015273812046130943637_);" d="M265.7,585.5c-5.7-3.6-15.2-7.8-22.3-7.8
	c-19.8,0-34.9,15.1-34.9,34.9s16,35.9,35.9,35.9l17.9,0.1l99.7-0.1L265.7,585.5L265.7,585.5z"/>
<linearGradient id="SVGID_00000167355630107983968590000014268966467800777401_" gradientUnits="userSpaceOnUse" x1="207.1" y1="303.15" x2="366.8" y2="303.15" gradientTransform="matrix(1 0 0 -1 0 916.2)">
	<stop  offset="0" style="stop-color:#F2CD21"/>
	<stop  offset="0.591" style="stop-color:#F1EBCD"/>
	<stop  offset="0.6986" style="stop-color:#F1E090"/>
	<stop  offset="0.7968" style="stop-color:#F1D860"/>
	<stop  offset="0.883" style="stop-color:#F2D23E"/>
	<stop  offset="0.9536" style="stop-color:#F2CE29"/>
	<stop  offset="1" style="stop-color:#F2CD21"/>
</linearGradient>
<path style="fill:url(#SVGID_00000167355630107983968590000014268966467800777401_);" d="M262.3,649.9l-17.9-0.1
	c-20.5,0-37.3-16.7-37.3-37.3s15.6-36.3,36.3-36.3c7.4,0,17.2,4.2,23.1,8l100.3,65.5L262.3,649.9L262.3,649.9z M243.3,579.1
	c-19.1,0-33.5,14.4-33.5,33.5c0,19,15.4,34.5,34.5,34.5l17.9,0.1l95.1-0.1L265,586.7C259.3,583.1,250.2,579.1,243.3,579.1
	L243.3,579.1z"/>
<linearGradient id="SVGID_00000110454388085668196830000010239198062363209147_" gradientUnits="userSpaceOnUse" x1="463.3949" y1="294.2119" x2="373.6968" y2="404.9264" gradientTransform="matrix(1 0 0 -1 0 916.2)">
	<stop  offset="0" style="stop-color:#06A34A"/>
	<stop  offset="0.591" style="stop-color:#B2DCC1"/>
	<stop  offset="0.6985" style="stop-color:#75C897"/>
	<stop  offset="0.7968" style="stop-color:#45B876"/>
	<stop  offset="0.8829" style="stop-color:#23AD5E"/>
	<stop  offset="0.9536" style="stop-color:#0EA64F"/>
	<stop  offset="1" style="stop-color:#06A34A"/>
</linearGradient>
<path style="fill:url(#SVGID_00000110454388085668196830000010239198062363209147_);" d="M484.7,585.5c5.6-3.6,15.2-7.8,22.3-7.8
	c19.8,0,34.9,15.1,34.9,34.9s-16.1,35.9-35.9,35.9l-17.9,0.1l-99.7-0.1L484.7,585.5L484.7,585.5z"/>
<linearGradient id="SVGID_00000034086074915046851630000002455994213925698966_" gradientUnits="userSpaceOnUse" x1="383.7" y1="303.1" x2="543.4" y2="303.1" gradientTransform="matrix(1 0 0 -1 0 916.2)">
	<stop  offset="0" style="stop-color:#06A34A"/>
	<stop  offset="0.591" style="stop-color:#B2DCC1"/>
	<stop  offset="0.6985" style="stop-color:#75C897"/>
	<stop  offset="0.7968" style="stop-color:#45B876"/>
	<stop  offset="0.8829" style="stop-color:#23AD5E"/>
	<stop  offset="0.9536" style="stop-color:#0EA64F"/>
	<stop  offset="1" style="stop-color:#06A34A"/>
</linearGradient>
<path style="fill:url(#SVGID_00000034086074915046851630000002455994213925698966_);" d="M488.2,649.9l-104.5-0.1L484,584.3
	c5.9-3.8,15.7-8,23.1-8c20.6,0,36.3,15.6,36.3,36.3c0,20.5-16.7,37.3-37.3,37.3L488.2,649.9z M393.1,647.1l95.1,0.1l17.9-0.1
	c19,0,34.5-15.4,34.5-34.5s-14.4-33.5-33.5-33.5c-6.5,0-15.8,3.8-21.6,7.5L393.1,647.1L393.1,647.1z"/>
<linearGradient id="SVGID_00000089547014053187146350000014314751318517563583_" gradientUnits="userSpaceOnUse" x1="436.7885" y1="272.6632" x2="347.0996" y2="383.3777" gradientTransform="matrix(1 0 0 -1 0 916.2)">
	<stop  offset="0" style="stop-color:#BD1D49"/>
	<stop  offset="0.591" style="stop-color:#EF9B9F"/>
	<stop  offset="0.6244" style="stop-color:#E98D94"/>
	<stop  offset="0.7461" style="stop-color:#D65D70"/>
	<stop  offset="0.8537" style="stop-color:#C83B56"/>
	<stop  offset="0.942" style="stop-color:#C02646"/>
	<stop  offset="1" style="stop-color:#BD1E40"/>
</linearGradient>
<path style="fill:url(#SVGID_00000089547014053187146350000014314751318517563583_);" d="M352.6,620.2
	c-6.6-14.5-46.8-107.5-46.8-107.5l-0.8-2c-7.9-18.1,0.1-39.3,17.8-47.3c17.7-8.1,38.5,0.1,46.4,18.2c2.9,6.6,3.6,13.6,2.6,20.2
	L352.6,620.2L352.6,620.2z"/>
<linearGradient id="SVGID_00000173858162999883520820000016709184670759701134_" gradientUnits="userSpaceOnUse" x1="300.4394" y1="374.35" x2="373.5785" y2="374.35" gradientTransform="matrix(1 0 0 -1 0 916.2)">
	<stop  offset="0" style="stop-color:#BE2025"/>
	<stop  offset="0.591" style="stop-color:#EF9B9F"/>
	<stop  offset="0.6201" style="stop-color:#EA8F93"/>
	<stop  offset="0.7432" style="stop-color:#D75F64"/>
	<stop  offset="0.852" style="stop-color:#C93D41"/>
	<stop  offset="0.9413" style="stop-color:#C1282D"/>
	<stop  offset="1" style="stop-color:#BE2025"/>
</linearGradient>
<path style="fill:url(#SVGID_00000173858162999883520820000016709184670759701134_);" d="M353.2,625l-2-4.3
	c-6.5-14.3-46.5-106.6-46.8-107.5l-0.8-2c-8.2-18.8,0.1-40.8,18.6-49.2c4.7-2.1,9.7-3.3,14.8-3.3c14.5,0,27.6,8.7,33.5,22.1
	c2.9,6.7,3.8,13.8,2.7,21L353.2,625L353.2,625z M336.9,461.6c-4.7,0-9.3,1-13.7,3c-17,7.7-24.7,28.2-17.1,45.5l0.8,2
	c0.4,0.8,34.8,80.3,44.9,103.3l18.4-113.8c1-6.5,0.2-13.3-2.5-19.4C362.3,469.7,350.2,461.6,336.9,461.6L336.9,461.6z"/>
<linearGradient id="SVGID_00000029040222836369676220000010467855917058330815_" gradientUnits="userSpaceOnUse" x1="473.6" y1="302.4877" x2="383.9111" y2="413.2021" gradientTransform="matrix(1 0 0 -1 0 916.2)">
	<stop  offset="0" style="stop-color:#8E479A"/>
	<stop  offset="0.591" style="stop-color:#CDBED0"/>
	<stop  offset="0.6113" style="stop-color:#C9B6CC"/>
	<stop  offset="0.7373" style="stop-color:#AF86B7"/>
	<stop  offset="0.8486" style="stop-color:#9D64A7"/>
	<stop  offset="0.94" style="stop-color:#924F9D"/>
	<stop  offset="1" style="stop-color:#8E479A"/>
</linearGradient>
<path style="fill:url(#SVGID_00000029040222836369676220000010467855917058330815_);" d="M427.8,463.4c-17.8-8.1-38.5,0.1-46.4,18.2
	c-2.7,6.3-3.5,12.9-2.7,19.3l18.9,0.3c5.9,0.5,7.5,2,5.6,3.3c-3.1,1.5-6.8,3.3-11.1,6.3c-10.5,7.5-9.8,12.5-7.3,25.9l-0.2,0.4
	l13.5,83.1c6.7-14.8,46.8-107.5,46.8-107.5l0.8-2C453.5,492.6,445.5,471.4,427.8,463.4L427.8,463.4z"/>
<linearGradient id="SVGID_00000057851455438595360870000012005590299772965513_" gradientUnits="userSpaceOnUse" x1="376.9617" y1="374.25" x2="450.0894" y2="374.25" gradientTransform="matrix(1 0 0 -1 0 916.2)">
	<stop  offset="0" style="stop-color:#8E479A"/>
	<stop  offset="0.591" style="stop-color:#CDBED0"/>
	<stop  offset="0.6113" style="stop-color:#C9B6CC"/>
	<stop  offset="0.7373" style="stop-color:#AF86B7"/>
	<stop  offset="0.8486" style="stop-color:#9D64A7"/>
	<stop  offset="0.94" style="stop-color:#924F9D"/>
	<stop  offset="1" style="stop-color:#8E479A"/>
</linearGradient>
<path style="fill:url(#SVGID_00000057851455438595360870000012005590299772965513_);" d="M397.3,625L383,536.8l0.2-0.4
	c-2.3-12.8-3.2-18.8,8-26.8c4.2-3,7.6-4.6,10.7-6.2h0.1c-0.7-0.3-2.1-0.7-4.6-0.8l-20-0.3l-0.2-1.2c-0.9-6.8,0.1-13.8,2.8-20.1
	c5.9-13.5,19-22.1,33.5-22.1c5.1,0,10.1,1.1,14.8,3.3c18.4,8.4,26.8,30.4,18.5,49.2l-0.8,2c-0.4,0.9-40.2,93-46.8,107.5L397.3,625
	L397.3,625z M385.9,537.3l12.6,78c10.2-23.1,44.5-102.4,44.9-103.3l0.8-2c7.6-17.4-0.1-37.8-17.1-45.5c-4.4-2-8.9-3-13.7-3
	c-13.3,0-25.5,8-30.9,20.4c-2.4,5.5-3.3,11.4-2.8,17.4l17.7,0.3c7.1,0.7,7.5,2.6,7.7,3.3c0.1,0.5,0.2,1.7-1.5,2.7l-0.7,0.3
	c-3,1.5-6.3,3.2-10.3,5.9c-9.9,7.1-9.1,11.5-6.8,24.5l0.1,0.5L385.9,537.3L385.9,537.3z"/>
</svg>
