<?xml version="1.0" encoding="UTF-8" standalone="no"?>
<svg width="578.55109mm" height="176.81953mm" version="1.1" viewBox="0 0 578.5511 176.81953" id="svg83156" sodipodi:docname="KXLT-2017.svg" inkscape:version="1.1.1 (3bf5ae0, 2021-09-20)" xmlns:inkscape="http://www.inkscape.org/namespaces/inkscape" xmlns:sodipodi="http://sodipodi.sourceforge.net/DTD/sodipodi-0.dtd" xmlns:xlink="http://www.w3.org/1999/xlink" xmlns="http://www.w3.org/2000/svg" xmlns:svg="http://www.w3.org/2000/svg">
  <sodipodi:namedview id="namedview83158" pagecolor="#505050" bordercolor="#eeeeee" borderopacity="1" inkscape:pageshadow="0" inkscape:pageopacity="0" inkscape:pagecheckerboard="0" inkscape:document-units="mm" showgrid="false" inkscape:zoom="0.47126121" inkscape:cx="1100.2391" inkscape:cy="-123.07399" inkscape:window-width="1366" inkscape:window-height="703" inkscape:window-x="0" inkscape:window-y="0" inkscape:window-maximized="1" inkscape:current-layer="svg83156" />
  <defs id="defs83104">
    <linearGradient id="SVGID_d">
      <stop stop-color="#86878b" offset="0" id="stop83045" />
      <stop stop-color="#dde2e6" offset=".26454252" id="stop83047" />
      <stop stop-color="#dfe4e8" offset=".45708632" id="stop83049" />
      <stop stop-color="#dbe1e4" offset=".68606961" id="stop83051" />
      <stop stop-color="#8a8b8f" offset="1" id="stop83053" />
    </linearGradient>
    <linearGradient id="SVGID_c" x1="-363.70969" x2="2.04512" y1="59.470715" y2="59.937805" gradientTransform="translate(375.04681,160.86891)" gradientUnits="userSpaceOnUse" xlink:href="#SVGID_d" />
    <linearGradient id="SVGID_b" x1="-375.04681" x2="6.7149048" y1="68.173004" y2="68.173004" gradientTransform="translate(375.04681,108.64654)" gradientUnits="userSpaceOnUse">
      <stop stop-color="#242424" offset="0" id="stop83057" />
      <stop stop-color="#202020" offset=".2656422" id="stop83059" />
      <stop stop-color="#373938" offset=".49214065" id="stop83061" />
      <stop stop-color="#060709" offset="1" id="stop83063" />
    </linearGradient>
    <linearGradient id="SVGID_a" x1="-364.70898" x2="-364.70898" y1="60.470699" y2="-98.544922" gradientTransform="translate(375.04681,160.86891)" gradientUnits="userSpaceOnUse" xlink:href="#SVGID_00000168105465103908157250000009477657948908824748_" />
    <linearGradient id="SVGID_00000140718683669397782040000002372209503839789707_" x1="-157.99594" x2="-157.99594" y1="1071.0804" y2="1000.4846" gradientTransform="matrix(2.2524782,0,0,2.2524782,366.22025,-2243.4682)" gradientUnits="userSpaceOnUse" xlink:href="#SVGID_00000168105465103908157250000009477657948908824748_">
      <stop stop-color="#CFD1D2" offset=".003624326" id="stop83067" />
      <stop stop-color="#A4A3A6" offset=".2575" id="stop83069" />
      <stop stop-color="#EFF1F2" offset=".527" id="stop83071" />
      <stop stop-color="#AEB0B2" offset=".7907" id="stop83073" />
      <stop stop-color="#EDEEEF" offset="1" id="stop83075" />
    </linearGradient>
    <linearGradient id="SVGID_00000004518596062834789740000005118156941531083905_" x1="79.088699" x2="39.817402" y1="997.35168" y2="1065.3716" gradientTransform="matrix(2.2524782,0,0,2.2524782,366.22025,-2243.4682)" gradientUnits="userSpaceOnUse">
      <stop stop-color="#707274" offset="0" id="stop83078" />
      <stop stop-color="#EAECEE" offset=".648" id="stop83080" />
    </linearGradient>
    <linearGradient id="SVGID_00000168105465103908157250000009477657948908824748_" x1="29.4482" x2="29.4482" y1="1005.2353" y2="1069.5647" gradientTransform="matrix(2.2524782,0,0,2.2524782,366.22025,-2191.2458)" gradientUnits="userSpaceOnUse">
      <stop stop-color="#CFD1D2" offset=".003624326" id="stop83083" />
      <stop stop-color="#A4A3A6" offset=".2575" id="stop83085" />
      <stop stop-color="#EFF1F2" offset=".527" id="stop83087" />
      <stop stop-color="#AEB0B2" offset=".7907" id="stop83089" />
      <stop stop-color="#EDEEEF" offset="1" id="stop83091" />
    </linearGradient>
    <linearGradient id="SVGID_00000042711846188486110590000013828754270035506316_" x1="29.314699" x2="29.314699" y1="1069.2" y2="1005.6" gradientTransform="matrix(2.2524782,0,0,2.2524782,366.22025,-2243.4682)" gradientUnits="userSpaceOnUse">
      <stop stop-color="#fff" offset=".003624326" id="stop83094" />
      <stop stop-color="#A4A3A6" offset="1" id="stop83096" />
    </linearGradient>
    <radialGradient id="SVGID_1_" cx="46.4147" cy="1035.25" r="39.400299" gradientTransform="matrix(2.2524782,0,0,2.2524782,366.22025,-2243.4682)" gradientUnits="userSpaceOnUse">
      <stop stop-color="#DE2627" offset="0" id="stop83099" />
      <stop stop-color="#662B24" offset="1" id="stop83101" />
    </radialGradient>
    <linearGradient inkscape:collect="always" xlink:href="#SVGID_00000168105465103908157250000009477657948908824748_" id="linearGradient83258" gradientUnits="userSpaceOnUse" gradientTransform="translate(375.04681,108.64654)" x1="-364.70898" y1="60.470699" x2="-364.70898" y2="-98.544922" />
    <linearGradient inkscape:collect="always" xlink:href="#SVGID_00000168105465103908157250000009477657948908824748_" id="linearGradient83260" gradientUnits="userSpaceOnUse" gradientTransform="translate(375.04681,108.64654)" x1="-364.70898" y1="60.470699" x2="-364.70898" y2="-98.544922" />
    <linearGradient inkscape:collect="always" xlink:href="#SVGID_00000168105465103908157250000009477657948908824748_" id="linearGradient83262" gradientUnits="userSpaceOnUse" gradientTransform="translate(375.04681,108.64654)" x1="-364.70898" y1="60.470699" x2="-364.70898" y2="-98.544922" />
    <linearGradient inkscape:collect="always" xlink:href="#SVGID_d" id="linearGradient83331" gradientUnits="userSpaceOnUse" gradientTransform="translate(375.04681,108.64654)" x1="-363.70969" y1="59.470715" x2="2.04512" y2="59.937805" />
    <linearGradient inkscape:collect="always" xlink:href="#SVGID_d" id="linearGradient83333" gradientUnits="userSpaceOnUse" gradientTransform="translate(375.04681,108.64654)" x1="-363.70969" y1="59.470715" x2="2.04512" y2="59.937805" />
    <linearGradient inkscape:collect="always" xlink:href="#SVGID_d" id="linearGradient83335" gradientUnits="userSpaceOnUse" gradientTransform="translate(375.04681,108.64654)" x1="-363.70969" y1="59.470715" x2="2.04512" y2="59.937805" />
    <linearGradient inkscape:collect="always" xlink:href="#SVGID_00000168105465103908157250000009477657948908824748_" id="linearGradient83660" gradientUnits="userSpaceOnUse" gradientTransform="matrix(2.2524782,0,0,2.2524782,366.22025,-2243.4682)" x1="29.4482" y1="1005.2353" x2="29.4482" y2="1069.5647" />
  </defs>
  <path d="M 0,6.0375977e-6 H 381.76171 V 176.81954 H 0 Z" fill="url(#SVGID_b)" id="path83106" style="fill:url(#SVGID_b);stroke:none" />
  <path d="m 55.76738,54.135846 v 20.46999 H 99.03379 V 117.40839 H 55.76738 v 50.70886 H 11.33712 V 11.101691 h 94.44237 l 3.02446,43.034155 z" id="path83108" style="fill:url(#linearGradient83331);stroke:none" />
  <path d="m 235.64709,35.237435 c 14.73977,15.045571 22.11384,33.207861 22.11384,54.483001 0,21.429344 -7.37472,39.665824 -22.11384,54.713324 -14.74234,15.04492 -32.52271,22.56738 -53.34237,22.56738 -20.97257,0 -38.83229,-7.52246 -53.57141,-22.56738 -14.74299,-15.04686 -22.11255,-33.28398 -22.11255,-54.713324 0,-21.27579 7.36956,-39.43743 22.11255,-54.483001 14.73912,-15.045566 32.59884,-22.568672 53.57141,-22.568672 20.81902,0 38.60003,7.523106 53.34237,22.568672 z m -66.10862,85.941855 c 0,3.49865 1.28966,6.53667 3.87542,9.11921 2.5819,2.58577 5.69926,3.87607 9.3463,3.87607 3.64769,0 6.72506,-1.2903 9.23276,-3.87607 2.50835,-2.58254 3.76187,-5.62056 3.76187,-9.11921 V 57.577726 c 0,-3.64704 -1.25352,-6.76054 -3.76187,-9.3463 -2.50706,-2.581899 -5.58443,-3.875426 -9.23276,-3.875426 -3.64704,0 -6.76376,1.293527 -9.3463,3.875426 -2.58641,2.58576 -3.87542,5.69926 -3.87542,9.3463 z" id="path83110" style="fill:url(#linearGradient83333);stroke:none" />
  <path d="m 327.07854,168.58434 -22.32997,-39.77872 -21.6332,39.77872 H 234.26582 L 280.7896,87.167576 236.82449,11.101691 h 50.24565 L 305.44727,45.06373 324.056,11.101691 h 48.616 l -43.03415,75.600085 47.45408,81.881924 h -50.01339 z" id="path83112" style="fill:url(#linearGradient83335);stroke:none" />
  <path d="M 10.33783,10.101614 V 169.11724 h 46.42968 v -50.70898 h 43.26563 V 73.605516 H 56.76751 v -18.46875 h 53.10938 l -3.16602,-45.035152 z m 2,2 h 92.50976 l 2.88477,41.035152 H 54.76751 v 22.46875 H 98.03314 V 116.40826 H 54.76751 v 50.70898 H 12.33783 Z" color="black" solid-color="black" style="fill:url(#linearGradient83258);stroke:none;-inkscape-stroke:none" id="path83138" />
  <path d="m 182.30462,11.66802 c -21.21169,0 -39.38007,7.65416 -54.28515,22.869141 -14.90794,15.213895 -22.39844,33.676905 -22.39844,55.183595 0,21.658584 7.48936,40.195744 22.39844,55.412114 14.90509,15.21433 33.07348,22.86914 54.28515,22.86914 21.06052,0 39.14963,-7.65617 54.05664,-22.86914 14.90505,-15.2169 22.40039,-33.75337 22.40039,-55.412114 0,-21.50619 -7.49578,-39.96977 -22.40039,-55.183595 C 221.45425,19.323531 203.36453,11.66802 182.30462,11.66802 Z m 0,2 c 20.5781,0 38.05128,7.39206 52.62891,22.269532 14.5749,14.877274 21.82812,32.739154 21.82812,53.783204 0,21.199894 -7.25496,39.135604 -21.82812,54.013674 -14.57764,14.87684 -32.05014,22.26758 -52.62891,22.26758 -20.73343,0 -38.2843,-7.39211 -52.85742,-22.26758 -14.57687,-14.87732 -21.82617,-32.81362 -21.82617,-54.013674 0,-21.04485 7.24816,-38.906 21.82617,-53.783204 14.57313,-14.876121 32.12401,-22.269532 52.85742,-22.269532 z m 0.45508,29.6875 c -3.88349,0 -7.30381,1.419729 -10.05273,4.167969 -2.75277,2.752077 -4.16797,6.172027 -4.16797,10.054687 v 63.601564 c 0,3.74439 1.42239,7.08402 4.16797,9.82617 2.74874,2.75287 6.16983,4.16797 10.05273,4.16797 3.88351,0 7.27457,-1.41976 9.95117,-4.17968 2.66471,-2.74405 4.04492,-6.07746 4.04492,-9.81446 V 57.578176 c 0,-3.87617 -1.37317,-7.28876 -4.04492,-10.042968 -2.67568,-2.75555 -6.06647,-4.179688 -9.95117,-4.179688 z m 0,2 c 3.41196,0 6.17719,1.164031 8.51563,3.572266 2.34494,2.41732 3.48046,5.2325 3.48046,8.65039 v 63.601564 c 0,3.25979 -1.12919,6.00106 -3.48046,8.42188 -2.3388,2.41161 -5.10376,3.57226 -8.51563,3.57226 -3.41117,0 -6.22362,-1.16335 -8.63867,-3.58203 -2.42594,-2.42292 -3.58203,-5.1592 -3.58203,-8.41211 V 57.578176 c 0,-3.41141 1.16198,-6.21923 3.58203,-8.63867 2.41615,-2.415546 5.22809,-3.583986 8.63867,-3.583986 z" color="black" solid-color="black" style="fill:url(#linearGradient83260);stroke:none;-inkscape-stroke:none" id="path83140" />
  <path d="m 235.09173,10.101614 44.54492,77.068362 -47.09375,82.414064 h 51.16602 l 21.05273,-38.71094 23.31641,41.53516 v -2.82422 h 50.75 L 330.79095,86.697316 374.39251,10.101614 H 323.46283 L 305.45306,42.972708 287.66595,10.101614 Z m 3.46485,2 h 47.91796 l 18.9668,35.052735 19.20703,-35.052735 h 46.30469 L 328.48431,86.707086 375.3554,167.58404 H 327.664 l -22.92969,-40.8457 -22.21289,40.8457 h -46.53125 l 45.95312,-80.419924 z" color="black" solid-color="black" style="fill:url(#linearGradient83262);stroke:none;-inkscape-stroke:none" id="path83142" />
  <rect class="st0" x="381.76172" y="0" width="178.17102" height="176.81953" fill="url(#SVGID_1_)" id="rect83146" style="fill:url(#SVGID_1_);stroke:none" />
  <path d="m 425.00938,164.88152 v -27.02974 h -57.88872 v -30.18323 l 48.65349,-86.04464 h 47.97843 v 84.24271 h 33.78677 l -18.47045,31.98516 h -16.66821 v 27.02974 z m 1.57665,-97.757584 h -0.45116 l -22.75013,41.896104 24.32678,0.2256 z" color="black" fill="url(#SVGID_00000042711846188486110590000013828754270035506316_)" solid-color="black" style="fill:url(#SVGID_00000042711846188486110590000013828754270035506316_);stroke:none;-inkscape-stroke:none" id="path83148" />
  <path d="M 415.29486,20.800329 366.2991,107.45035 v 31.22237 h 57.88704 v 27.02974 h 39.0386 v -27.02974 h 16.32171 L 498.96529,105.0439 H 464.57581 V 20.800329 Z m 0.95946,1.64537 h 46.67676 v 84.243561 h 33.18483 l -17.52294,30.34244 h -17.01216 v 27.02974 h -35.749 V 137.0317 h -57.8871 v -29.14581 z m 9.39273,43.857387 -23.63379,43.527334 26.5411,0.24603 -1.16973,-43.773714 h -0.80028 z m 0.17878,3.11033 1.04285,39.000394 -22.11071,-0.20262 z" color="black" fill="url(#SVGID_00000168105465103908157250000009477657948908824748_)" solid-color="black" style="fill:url(#linearGradient83660);stroke:none;-inkscape-stroke:none" id="path83150" />
  <path d="M 471.63592,165.33205 533.35395,57.888786 H 469.38326 V 22.524874 H 577.72783 V 52.933366 L 514.43314,165.55723 Z" color="black" fill="url(#SVGID_00000004518596062834789740000005118156941531083905_)" solid-color="black" style="fill:url(#SVGID_00000004518596062834789740000005118156941531083905_);stroke:none;-inkscape-stroke:none" id="path83152" />
  <path d="m 468.56263,21.702233 v 37.007493 h 63.36875 L 470.221,166.14677 l 1.41237,0.009 43.28075,0.22475 63.63695,-113.231504 V 21.70232 Z m 1.64051,1.645364 H 576.90546 V 52.717806 L 513.95553,164.73459 473.0542,164.5192 534.7731,57.068956 h -64.56996 z" color="black" fill="url(#SVGID_00000140718683669397782040000002372209503839789707_)" solid-color="black" style="fill:url(#SVGID_00000140718683669397782040000002372209503839789707_);stroke:none;-inkscape-stroke:none" id="path83154" />
</svg>
